<?xml version="1.0" encoding="UTF-8" standalone="no"?><!DOCTYPE svg PUBLIC "-//W3C//DTD SVG 1.1//EN" "http://www.w3.org/Graphics/SVG/1.1/DTD/svg11.dtd"><svg width="100%" height="100%" viewBox="0 0 759 887" version="1.1" xmlns="http://www.w3.org/2000/svg" xmlns:xlink="http://www.w3.org/1999/xlink" xml:space="preserve" xmlns:serif="http://www.serif.com/" style="fill-rule:evenodd;clip-rule:evenodd;stroke-linejoin:round;stroke-miterlimit:2;"><g><g opacity="0.6"><path d="M295.583,40.545c163.238,-94.242 296.017,-18.609 296.546,168.991c0.533,187.571 -131.383,416.059 -294.621,510.305l-0.479,-169.842c-0.267,-93.783 -66.671,-131.592 -148.287,-84.471c-81.617,47.121 -147.992,9.267 -148.259,-84.521l-0.483,-169.808l295.583,-170.654Z" style="fill:url(#_Linear1);fill-rule:nonzero;"/></g><g opacity="0.6"><path d="M337.25,82.211c163.237,-94.241 296.017,-18.608 296.546,168.992c0.533,187.571 -131.384,416.058 -294.621,510.304l-0.479,-169.841c-0.267,-93.784 -66.671,-131.592 -148.288,-84.471c-81.616,47.121 -147.991,9.266 -148.258,-84.521l-0.483,-169.808l295.583,-170.655Z" style="fill:url(#_Linear2);fill-rule:nonzero;"/></g><g opacity="0.6"><path d="M378.917,123.878c163.237,-94.242 296.016,-18.608 296.545,168.992c0.534,187.571 -131.383,416.058 -294.62,510.304l-0.48,-169.842c-0.266,-93.783 -66.67,-131.591 -148.287,-84.471c-81.617,47.121 -147.992,9.267 -148.258,-84.52l-0.484,-169.809l295.584,-170.654Z" style="fill:url(#_Linear3);fill-rule:nonzero;"/></g><g opacity="0.6"><path d="M420.583,165.545c163.238,-94.242 296.017,-18.609 296.546,168.991c0.533,187.571 -131.383,416.059 -294.621,510.305l-0.479,-169.842c-0.267,-93.783 -66.671,-131.592 -148.287,-84.471c-81.617,47.121 -147.992,9.267 -148.259,-84.521l-0.483,-169.808l295.583,-170.654Z" style="fill:url(#_Linear4);fill-rule:nonzero;"/></g><g opacity="0.6"><path d="M462.25,207.211c163.237,-94.241 296.017,-18.608 296.546,168.992c0.533,187.571 -131.384,416.058 -294.621,510.304l-0.479,-169.841c-0.267,-93.784 -66.671,-131.592 -148.288,-84.471c-81.616,47.121 -147.991,9.266 -148.258,-84.521l-0.483,-169.808l295.583,-170.655Z" style="fill:url(#_Linear5);fill-rule:nonzero;"/></g></g><defs><linearGradient id="_Linear1" x1="0" y1="0" x2="1" y2="0" gradientUnits="userSpaceOnUse" gradientTransform="matrix(-574.016,323.622,-323.622,-574.016,644.61,183.947)"><stop offset="0" style="stop-color:#fff33a;stop-opacity:1"/><stop offset="0.28" style="stop-color:#fdc709;stop-opacity:1"/><stop offset="0.67" style="stop-color:#f4913f;stop-opacity:1"/><stop offset="0.89" style="stop-color:#ee683c;stop-opacity:1"/><stop offset="1" style="stop-color:#ea3d39;stop-opacity:1"/></linearGradient><linearGradient id="_Linear2" x1="0" y1="0" x2="1" y2="0" gradientUnits="userSpaceOnUse" gradientTransform="matrix(592.131,0,0,592.131,41.6679,401.586)"><stop offset="0" style="stop-color:#ea3d39;stop-opacity:1"/><stop offset="0.11" style="stop-color:#ee683c;stop-opacity:1"/><stop offset="0.33" style="stop-color:#f4913f;stop-opacity:1"/><stop offset="0.72" style="stop-color:#fdc709;stop-opacity:1"/><stop offset="1" style="stop-color:#fff33a;stop-opacity:1"/></linearGradient><linearGradient id="_Linear3" x1="0" y1="0" x2="1" y2="0" gradientUnits="userSpaceOnUse" gradientTransform="matrix(592.131,0,0,592.131,83.3346,443.253)"><stop offset="0" style="stop-color:#fff33a;stop-opacity:1"/><stop offset="0.28" style="stop-color:#fdc709;stop-opacity:1"/><stop offset="0.67" style="stop-color:#f4913f;stop-opacity:1"/><stop offset="0.89" style="stop-color:#ee683c;stop-opacity:1"/><stop offset="1" style="stop-color:#ea3d39;stop-opacity:1"/></linearGradient><linearGradient id="_Linear4" x1="0" y1="0" x2="1" y2="0" gradientUnits="userSpaceOnUse" gradientTransform="matrix(-200.787,1018.11,-1018.11,-200.787,484.657,35.0663)"><stop offset="0" style="stop-color:#ea3d39;stop-opacity:1"/><stop offset="0.11" style="stop-color:#ee683c;stop-opacity:1"/><stop offset="0.33" style="stop-color:#f4913f;stop-opacity:1"/><stop offset="0.72" style="stop-color:#fdc709;stop-opacity:1"/><stop offset="1" style="stop-color:#fff33a;stop-opacity:1"/></linearGradient><linearGradient id="_Linear5" x1="0" y1="0" x2="1" y2="0" gradientUnits="userSpaceOnUse" gradientTransform="matrix(455.906,316.535,-316.535,455.906,163.742,255.345)"><stop offset="0" style="stop-color:#fff33a;stop-opacity:1"/><stop offset="0.28" style="stop-color:#fdc709;stop-opacity:1"/><stop offset="0.67" style="stop-color:#f4913f;stop-opacity:1"/><stop offset="0.89" style="stop-color:#ee683c;stop-opacity:1"/><stop offset="1" style="stop-color:#ea3d39;stop-opacity:1"/></linearGradient></defs></svg>